<svg width="11" height="11" viewBox="0 0 11 11" fill="none" xmlns="http://www.w3.org/2000/svg">
    <path d="M10.0834 5.50004V7.79171C10.0834 9.16671 9.16675 10.0834 7.79175 10.0834H3.20841C1.83341 10.0834 0.916748 9.16671 0.916748 7.79171V5.50004C0.916748 4.25337 1.66841 3.38254 2.83716 3.23587C2.95633 3.21754 3.08008 3.20837 3.20841 3.20837H7.79175C7.91091 3.20837 8.0255 3.21295 8.1355 3.23129C9.318 3.36879 10.0834 4.24421 10.0834 5.50004Z" stroke="white" stroke-linecap="round" stroke-linejoin="round"/>
    <path d="M8.13598 3.23121C8.02598 3.21288 7.9114 3.2083 7.79223 3.2083H3.2089C3.08056 3.2083 2.95681 3.21746 2.83765 3.2358C2.90181 3.10746 2.99348 2.9883 3.10348 2.8783L4.59306 1.38413C5.22098 0.760793 6.23848 0.760793 6.8664 1.38413L7.66848 2.19539C7.96181 2.48414 8.11765 2.85079 8.13598 3.23121Z" stroke="white" stroke-linecap="round" stroke-linejoin="round"/>
    <path d="M10.0834 5.72913H8.70841C8.20425 5.72913 7.79175 6.14163 7.79175 6.64579C7.79175 7.14996 8.20425 7.56246 8.70841 7.56246H10.0834" stroke="white" stroke-linecap="round" stroke-linejoin="round"/>
    </svg>
    