<svg width="38" height="25" viewBox="0 0 38 25" fill="none" xmlns="http://www.w3.org/2000/svg">
    <path d="M11.664 14.58H13.344V16.708H11.664V18.5H9.04V16.708H0.624V14.58L9.04 6.66H11.664V14.58ZM9.04 9.22L3.68 14.58H9.04V9.22Z" fill="white"/>
    <path d="M35.08 9.08003V15.92C35.08 17.04 34.48 18.08 33.51 18.65L27.57 22.08C26.6 22.64 25.4 22.64 24.42 22.08L18.48 18.65C17.51 18.09 16.91 17.05 16.91 15.92V9.08003C16.91 7.96003 17.51 6.91999 18.48 6.34999L24.42 2.92C25.39 2.36 26.59 2.36 27.57 2.92L33.51 6.34999C34.48 6.91999 35.08 7.95003 35.08 9.08003Z" stroke="white" stroke-linecap="round" stroke-linejoin="round"/>
    <path d="M26 11.5001C27.2869 11.5001 28.33 10.4569 28.33 9.17004C28.33 7.88322 27.2869 6.84009 26 6.84009C24.7132 6.84009 23.67 7.88322 23.67 9.17004C23.67 10.4569 24.7132 11.5001 26 11.5001Z" stroke="white" stroke-linecap="round" stroke-linejoin="round"/>
    <path d="M30 17.1601C30 15.3601 28.21 13.9001 26 13.9001C23.79 13.9001 22 15.3601 22 17.1601" stroke="white" stroke-linecap="round" stroke-linejoin="round"/>
    </svg>
    