<svg width="18" height="18" viewBox="0 0 18 18" fill="none" xmlns="http://www.w3.org/2000/svg">
<path d="M9.375 3.75C10.7892 3.75 11.4963 3.75 11.9357 4.18934C12.375 4.62868 12.375 5.33579 12.375 6.75V11.25C12.375 12.6642 12.375 13.3713 11.9357 13.8107C11.4963 14.25 10.7892 14.25 9.375 14.25H8.625C7.21079 14.25 6.50368 14.25 6.06434 13.8107C5.625 13.3713 5.625 12.6642 5.625 11.25L5.625 6.75C5.625 5.33579 5.625 4.62868 6.06434 4.18934C6.50368 3.75 7.21079 3.75 8.625 3.75L9.375 3.75Z" stroke="white"/>
<path d="M16.5 14.25H16.125C15.0895 14.25 14.25 13.4105 14.25 12.375L14.25 5.625C14.25 4.58947 15.0895 3.75 16.125 3.75L16.5 3.75" stroke="white" stroke-linecap="round"/>
<path d="M1.5 14.25H1.875C2.91053 14.25 3.75 13.4105 3.75 12.375L3.75 5.625C3.75 4.58947 2.91053 3.75 1.875 3.75L1.5 3.75" stroke="white" stroke-linecap="round"/>
</svg>
