<svg width="12" height="12" viewBox="0 0 12 12" fill="none" xmlns="http://www.w3.org/2000/svg">
    <path d="M2.83476 4.95718L4.36583 2.88566C5.35551 1.54664 5.85035 0.877125 6.31204 1.01861C6.77372 1.16009 6.77372 1.98125 6.77372 3.62356V3.77841C6.77372 4.37076 6.77372 4.66693 6.96298 4.85271L6.973 4.86233C7.16635 5.04418 7.47461 5.04418 8.09111 5.04418C9.20056 5.04418 9.75528 5.04418 9.94275 5.38065C9.94586 5.38622 9.94887 5.39184 9.95181 5.3975C10.1288 5.73918 9.80759 6.17373 9.16522 7.04284L7.63415 9.11433C6.64445 10.4534 6.1496 11.1229 5.68792 10.9814C5.22624 10.8399 5.22625 10.0187 5.22627 8.37641L5.22628 8.22163C5.22629 7.62927 5.22629 7.33309 5.03702 7.14731L5.02701 7.13769C4.83365 6.95584 4.52539 6.95584 3.90888 6.95584C2.79944 6.95584 2.24472 6.95584 2.05725 6.61936C2.05414 6.61379 2.05113 6.60818 2.0482 6.60252C1.87122 6.26084 2.1924 5.82629 2.83476 4.95718Z" stroke="#040410"/>
    </svg>
    