<svg width="11" height="11" viewBox="0 0 11 11" fill="none" xmlns="http://www.w3.org/2000/svg">
    <path d="M9.66166 3.93247V7.06746C9.66166 7.58079 9.38666 8.05748 8.94207 8.31873L6.21957 9.89081C5.77499 10.1475 5.22499 10.1475 4.77582 9.89081L2.05332 8.31873C1.60874 8.06206 1.33374 7.58538 1.33374 7.06746V3.93247C1.33374 3.41914 1.60874 2.94246 2.05332 2.68121L4.77582 1.10913C5.22041 0.852459 5.77041 0.852459 6.21957 1.10913L8.94207 2.68121C9.38666 2.94246 9.66166 3.41456 9.66166 3.93247Z" stroke="white" stroke-opacity="0.2" stroke-linecap="round" stroke-linejoin="round"/>
    <path d="M5.50005 5.0417C6.08984 5.0417 6.56796 4.56357 6.56796 3.97378C6.56796 3.38399 6.08984 2.90588 5.50005 2.90588C4.91025 2.90588 4.43213 3.38399 4.43213 3.97378C4.43213 4.56357 4.91025 5.0417 5.50005 5.0417Z" stroke="white" stroke-opacity="0.2" stroke-linecap="round" stroke-linejoin="round"/>
    <path d="M7.33341 7.63587C7.33341 6.81087 6.513 6.14172 5.50008 6.14172C4.48716 6.14172 3.66675 6.81087 3.66675 7.63587" stroke="white" stroke-opacity="0.2" stroke-linecap="round" stroke-linejoin="round"/>
    </svg>
    